# xmcd
#
# Track frame offsets:
#	150
#	19452
#	34320
#	52328
#	72235
#	87886
#	106435
#	122679
#	135805
#	147145
#	165964
#	186924
#	205504
#	224956
#	244659
#	259063
#	277871
#	295014
#	310205
#	329663
#
# Disc length: 4604 seconds
#
# Revision: 1
# Processed by: cddbd v1.5.2PL0 Copyright (c) Steve Scherf et al.
# Submitted via: audiograbber 1.83.01
#
DISCID=3011fa14
DTITLE=Шансон - Золотые хиты - вып. 5, CD#2
DYEAR=2005
DGENRE=Chanson
TTITLE0=И. Слуцкий - Калина красная
TTITLE1=И. Кучин - Роза на крови
TTITLE2=М. Круг - Девочка пай
TTITLE3=Трофимов - Я скучаю по тебе
TTITLE4=Л. Успенская - Белым-бела
TTITLE5=А. Розенбаум - Дагомыс
TTITLE6=Г. Кричевский - Зима
TTITLE7=А. Дюмин - Тук-тук-тук
TTITLE8=В. Высоцкий - Он не вернулся из боя
TTITLE9=Г. Жаров - Ты знай
TTITLE10=А. Могилевский - Романс
TTITLE11=С. Дикий - Женщина-Осень
TTITLE12=А. Маршал - Вожак
TTITLE13=гр. Беломорканал - Милая, Чужая женщина
TTITLE14=В. Королёв - Мясоедовская
TTITLE15=Архив ресторанной музыки - Ах! Одесса
TTITLE16=М. Шуфутинский и И. Аллегрова - Колея
TTITLE17=С. Бобков - Чифирок, кипяток, папиросочка
TTITLE18=В. Черняков и О. Орлова - Ветер
TTITLE19=гр. Рядовой Дарин - Яна-Яночка
EXTD=
EXTT0=
EXTT1=
EXTT2=
EXTT3=
EXTT4=
EXTT5=
EXTT6=
EXTT7=
EXTT8=
EXTT9=
EXTT10=
EXTT11=
EXTT12=
EXTT13=
EXTT14=
EXTT15=
EXTT16=
EXTT17=
EXTT18=
EXTT19=
PLAYORDER=
